<svg xmlns="http://www.w3.org/2000/svg" viewBox="0 0 64 64">
  <style>
    .bg { fill: #0a0a0a; }
    .logo { fill: #ffffff; }
    @media (prefers-color-scheme: light) {
      .bg { fill: #ffffff; }
      .logo { fill: #0a0a0a; }
    }
  </style>
  <rect class="bg" width="64" height="64" rx="12"/>
  <g class="logo" transform="translate(4,15.5) scale(0.05932)">
    <g transform="translate(0,554) scale(0.1,-0.1)">
      <path d="M1503 5529c-454-44-883-285-1150-646-119-161-222-400-260-603-23-128-24-408 0-536 87-474 383-843 874-1088 94-47 496-209 783-316 315-117 438-188 568-324 128-136 192-287 192-457 0-191-87-388-232-525-300-283-765-314-1118-74-74 50-186 171-233 250-113 194-127 419-37 616 60 132 180 269 317 360l62 42-82 32c-263 104-434 189-610 303l-108 70-30-29c-53-50-154-176-208-259-100-153-164-313-203-510-31-155-31-396 1-545 89-419 314-755 670-999 472-323 1126-382 1670-150 307 131 596 386 759 669 140 244 205 484 205 755 0 236-43 427-142 630-95 195-230 361-412 506-191 152-313 213-819 404-672 255-708 272-850 415-94 95-139 162-178 272-23 66-26 87-26 223-1 132 2 158 22 215 84 237 280 412 537 481 111 29 297 29 409 0 158-42 318-142 400-250 21-28 40-51 42-51 2 0 15 23 30 51 84 167 233 379 377 539 101 111 106 92-53 212-116 87-333 201-461 242-226 72-470 98-706 75zM4355 5530c-719-60-1363-482-1708-1120-69-128-111-239-173-452-35-122-71-222-97-273-51-98-148-203-245-265-39-25-71-47-71-50-1-3 23-14 52-24 239-83 490-197 642-290l110-68 42 46c170 188 287 413 348 670 58 247 164 442 334 619 114 118 232 206 366 272 195 95 363 135 569 135 351 0 678-140 926-396 51-53 93-88 95-81 2 6 16 49 30 95 59 187 152 380 267 553 35 52 66 99 71 106 5 8-22 34-75 76-433 338-943 491-1483 447zM7390 5530c-563-69-1025-345-1320-788-152-228-246-478-285-754-13-95-16-269-20-1098-3-542-7-1013-11-1048-22-230-144-473-334-662-153-152-319-254-522-319-291-92-545-80-848 40-142 56-334 183-430 283l-34 36-27-109c-53-209-136-386-268-571-34-47-61-87-61-90 1-11 158-117 263-176 205-116 439-199 692-245 162-30 486-32 650-6 389 64 720 211 1015 451 330 269 568 622 666 990 60 226 56 161 63 1326l7 1075 27 100c68 251 216 460 424 598 404 268 932 215 1275-128 162-162 273-387 298-603 14-122 13-1994-1-2119-50-453-372-804-821-897-166-34-382-14-553 53-141 54-237 121-372 256l-121 123-27-76c-63-181-223-440-392-633-13-15-6-24 69-89 321-278 707-430 1133-447 483-18 928 138 1291 456 263 229 462 552 554 896 64 238 62 204 67 1315 5 1064 1 1192-38 1385-49 240-170 523-306 715-88 124-311 347-433 433-216 152-498 267-770 313-105 18-399 26-500 14z"/>
    </g>
  </g>
</svg>
